Coordinates
version=1
nRows=9
nColumns=24
inDegrees=yes

Units are S.I. units (second, meters, Newtons, ...)
Angles are in degrees.

endheader
time	pelvis_tilt	pelvis_list	pelvis_rotation	pelvis_tx	pelvis_ty	pelvis_tz	hip_flexion_r	hip_adduction_r	hip_rotation_r	knee_angle_r	ankle_angle_r	subtalar_angle_r	mtp_angle_r	hip_flexion_l	hip_adduction_l	hip_rotation_l	knee_angle_l	ankle_angle_l	subtalar_angle_l	mtp_angle_l	lumbar_extension	lumbar_bending	lumbar_rotation
      4.33500000	     -9.57268441	      2.16570547	      0.86749393	     -1.94837693	     -0.00963516	      0.42126747	     33.83906756	     -3.44504481	     -3.89740516	    -47.04178087	    -14.00213187	    -15.81318906	     10.93763934	      5.49526674	      6.02197411	      9.86575954	     -8.03685617	      2.53396713	      2.72074520	      6.09677128	      8.18544457	     -3.11313867	     -4.61350225
      4.34000000	     -9.62388917	      2.05717435	      1.27667224	     -1.94310234	     -0.00995105	      0.42077315	     34.04899519	     -3.50724100	     -4.19264941	    -45.40079156	    -13.56943332	    -15.31262206	     10.96759339	      5.07007595	      5.93062269	     10.18462398	     -7.83116693	      2.73045535	      2.85857589	      6.12925578	      8.15000732	     -3.10914224	     -5.12968077
      4.34500000	     -9.68463127	      1.94275659	      1.67891038	     -1.93782898	     -0.01029661	      0.42030480	     34.22384886	     -3.55758336	     -4.46032557	    -43.66814264	    -13.11942391	    -14.73279359	     11.05926159	      4.66461491	      5.82484179	     10.47259599	     -7.63938181	      2.94270539	      3.03301539	      6.16479345	      8.12398899	     -3.09855242	     -5.62364051
      4.35000000	     -9.79204532	      1.81204308	      2.02126178	     -1.93258336	     -0.01070428	      0.41998194	     34.40977290	     -3.53025280	     -4.58847283	    -41.83793634	    -12.72548302	    -14.11363636	     11.18056237	      4.33109300	      5.68852403	     10.68920739	     -7.48093656	      3.15857836	      3.19703901	      6.21188978	      8.14290971	     -3.07234860	     -6.07120096
      4.35500000	     -9.80507722	      1.72338967	      2.49873168	     -1.92730140	     -0.01104527	      0.41945769	     34.43854292	     -3.66959436	     -4.93604692	    -39.95395734	    -12.15791693	    -13.29175703	     11.42983705	      3.89118864	      5.60133483	     10.96384761	     -7.31542903	      3.41900638	      3.52209867	      6.27104159	      8.05910005	     -3.10459260	     -6.59582072
      4.36000000	     -9.83788516	      1.62487337	      2.91087381	     -1.92205183	     -0.01141815	      0.41910588	     34.45008422	     -3.72672559	     -5.11639625	    -37.98634831	    -11.64373038	    -12.42265401	     11.64161130	      3.49564905	      5.48848349	     11.16040511	     -7.18818088	      3.68502764	      3.83681807	      6.31174746	      7.98912967	     -3.12985274	     -7.08135449
      4.36500000	     -9.88972849	      1.52719993	      3.30932172	     -1.91674028	     -0.01183497	      0.41876312	     34.43849949	     -3.78127466	     -5.27801246	    -35.95199106	    -11.13775839	    -11.48830014	     11.87229222	      3.12258942	      5.37162861	     11.32323321	     -7.06847052	      3.96232281	      4.18300900	      6.37092568	      7.94928159	     -3.14586737	     -7.51853641
      4.37000000	     -9.93784743	      1.43717759	      3.71117862	     -1.91140841	     -0.01227132	      0.41846554	     34.38193445	     -3.84293613	     -5.42062264	    -33.86446350	    -10.63606305	    -10.48923915	     12.10912378	      2.75717390	      5.25616237	     11.45673344	     -6.96888055	      4.24262169	      4.55579871	      6.44761023	      7.90524264	     -3.17957937	     -7.94087086
      4.37500000	     -9.97445857	      1.36040111	      4.11073504	     -1.90604116	     -0.01271638	      0.41819063	     34.27468164	     -3.91557663	     -5.53947731	    -31.73732942	    -10.15862667	     -9.44475911	     12.31522499	      2.38694968	      5.14949622	     11.57035542	     -6.88692882	      4.52302129	      4.95223267	      6.53328115	      7.85041345	     -3.22451298	     -8.34801255
